ModelForces
version=1
nRows=4
nColumns=203
inDegrees=no

This file contains the forces exerted on a model during a simulation.

A force is a generalized force, meaning that it can be either a force (N) or a torque (Nm).

Units are S.I. units (second, meters, Newtons, ...)
Angles are in degrees.

endheader
time	glut_med1_r	glut_med2_r	glut_med3_r	glut_min1_r	glut_min2_r	glut_min3_r	semimem_r	semiten_r	bifemlh_r	bifemsh_r	sar_r	add_long_r	add_brev_r	add_mag1_r	add_mag2_r	add_mag3_r	tfl_r	pect_r	grac_r	glut_max1_r	glut_max2_r	glut_max3_r	iliacus_r	psoas_r	quad_fem_r	gem_r	peri_r	rect_fem_r	vas_med_r	vas_int_r	vas_lat_r	med_gas_r	lat_gas_r	soleus_r	tib_post_r	flex_dig_r	flex_hal_r	tib_ant_r	per_brev_r	per_long_r	per_tert_r	ext_dig_r	ext_hal_r	glut_med1_l	glut_med2_l	glut_med3_l	glut_min1_l	glut_min2_l	glut_min3_l	semimem_l	semiten_l	bifemlh_l	bifemsh_l	sar_l	add_long_l	add_brev_l	add_mag1_l	add_mag2_l	add_mag3_l	tfl_l	pect_l	grac_l	glut_max1_l	glut_max2_l	glut_max3_l	iliacus_l	psoas_l	quad_fem_l	gem_l	peri_l	rect_fem_l	vas_med_l	vas_int_l	vas_lat_l	med_gas_l	lat_gas_l	soleus_l	tib_post_l	flex_dig_l	flex_hal_l	tib_ant_l	per_brev_l	per_long_l	per_tert_l	ext_dig_l	ext_hal_l	ercspn_r	ercspn_l	intobl_r	intobl_l	extobl_r	extobl_l	femur_lat_meniscii_l.femur_lat_l.force.X	femur_lat_meniscii_l.femur_lat_l.force.Y	femur_lat_meniscii_l.femur_lat_l.force.Z	femur_lat_meniscii_l.femur_lat_l.torque.X	femur_lat_meniscii_l.femur_lat_l.torque.Y	femur_lat_meniscii_l.femur_lat_l.torque.Z	femur_lat_meniscii_l.meniscus_lat_l.force.X	femur_lat_meniscii_l.meniscus_lat_l.force.Y	femur_lat_meniscii_l.meniscus_lat_l.force.Z	femur_lat_meniscii_l.meniscus_lat_l.torque.X	femur_lat_meniscii_l.meniscus_lat_l.torque.Y	femur_lat_meniscii_l.meniscus_lat_l.torque.Z	femur_med_meniscii_l.femur_med_l.force.X	femur_med_meniscii_l.femur_med_l.force.Y	femur_med_meniscii_l.femur_med_l.force.Z	femur_med_meniscii_l.femur_med_l.torque.X	femur_med_meniscii_l.femur_med_l.torque.Y	femur_med_meniscii_l.femur_med_l.torque.Z	femur_med_meniscii_l.meniscus_med_l.force.X	femur_med_meniscii_l.meniscus_med_l.force.Y	femur_med_meniscii_l.meniscus_med_l.force.Z	femur_med_meniscii_l.meniscus_med_l.torque.X	femur_med_meniscii_l.meniscus_med_l.torque.Y	femur_med_meniscii_l.meniscus_med_l.torque.Z	femur_lat_meniscii_r.femur_lat_r.force.X	femur_lat_meniscii_r.femur_lat_r.force.Y	femur_lat_meniscii_r.femur_lat_r.force.Z	femur_lat_meniscii_r.femur_lat_r.torque.X	femur_lat_meniscii_r.femur_lat_r.torque.Y	femur_lat_meniscii_r.femur_lat_r.torque.Z	femur_lat_meniscii_r.meniscus_lat_r.force.X	femur_lat_meniscii_r.meniscus_lat_r.force.Y	femur_lat_meniscii_r.meniscus_lat_r.force.Z	femur_lat_meniscii_r.meniscus_lat_r.torque.X	femur_lat_meniscii_r.meniscus_lat_r.torque.Y	femur_lat_meniscii_r.meniscus_lat_r.torque.Z	femur_med_meniscii_r.femur_med_r.force.X	femur_med_meniscii_r.femur_med_r.force.Y	femur_med_meniscii_r.femur_med_r.force.Z	femur_med_meniscii_r.femur_med_r.torque.X	femur_med_meniscii_r.femur_med_r.torque.Y	femur_med_meniscii_r.femur_med_r.torque.Z	femur_med_meniscii_r.meniscus_med_r.force.X	femur_med_meniscii_r.meniscus_med_r.force.Y	femur_med_meniscii_r.meniscus_med_r.force.Z	femur_med_meniscii_r.meniscus_med_r.torque.X	femur_med_meniscii_r.meniscus_med_r.torque.Y	femur_med_meniscii_r.meniscus_med_r.torque.Z	femur_med_tibia_l.tibia_upper_l.force.X	femur_med_tibia_l.tibia_upper_l.force.Y	femur_med_tibia_l.tibia_upper_l.force.Z	femur_med_tibia_l.tibia_upper_l.torque.X	femur_med_tibia_l.tibia_upper_l.torque.Y	femur_med_tibia_l.tibia_upper_l.torque.Z	femur_med_tibia_l.femur_med_l.force.X	femur_med_tibia_l.femur_med_l.force.Y	femur_med_tibia_l.femur_med_l.force.Z	femur_med_tibia_l.femur_med_l.torque.X	femur_med_tibia_l.femur_med_l.torque.Y	femur_med_tibia_l.femur_med_l.torque.Z	femur_lat_tibia_l.tibia_upper_l.force.X	femur_lat_tibia_l.tibia_upper_l.force.Y	femur_lat_tibia_l.tibia_upper_l.force.Z	femur_lat_tibia_l.tibia_upper_l.torque.X	femur_lat_tibia_l.tibia_upper_l.torque.Y	femur_lat_tibia_l.tibia_upper_l.torque.Z	femur_lat_tibia_l.femur_lat_l.force.X	femur_lat_tibia_l.femur_lat_l.force.Y	femur_lat_tibia_l.femur_lat_l.force.Z	femur_lat_tibia_l.femur_lat_l.torque.X	femur_lat_tibia_l.femur_lat_l.torque.Y	femur_lat_tibia_l.femur_lat_l.torque.Z	femur_med_tibia_r.tibia_upper_r.force.X	femur_med_tibia_r.tibia_upper_r.force.Y	femur_med_tibia_r.tibia_upper_r.force.Z	femur_med_tibia_r.tibia_upper_r.torque.X	femur_med_tibia_r.tibia_upper_r.torque.Y	femur_med_tibia_r.tibia_upper_r.torque.Z	femur_med_tibia_r.femur_med_r.force.X	femur_med_tibia_r.femur_med_r.force.Y	femur_med_tibia_r.femur_med_r.force.Z	femur_med_tibia_r.femur_med_r.torque.X	femur_med_tibia_r.femur_med_r.torque.Y	femur_med_tibia_r.femur_med_r.torque.Z	femur_lat_tibia_r.tibia_upper_r.force.X	femur_lat_tibia_r.tibia_upper_r.force.Y	femur_lat_tibia_r.tibia_upper_r.force.Z	femur_lat_tibia_r.tibia_upper_r.torque.X	femur_lat_tibia_r.tibia_upper_r.torque.Y	femur_lat_tibia_r.tibia_upper_r.torque.Z	femur_lat_tibia_r.femur_lat_r.force.X	femur_lat_tibia_r.femur_lat_r.force.Y	femur_lat_tibia_r.femur_lat_r.force.Z	femur_lat_tibia_r.femur_lat_r.torque.X	femur_lat_tibia_r.femur_lat_r.torque.Y	femur_lat_tibia_r.femur_lat_r.torque.Z	aACL_R	pACL_R	aPCL_R	pPCL_R	aMCL_R	mMCL_R	pMCL_R	aLCL_R	mLCL_R	pLCL_R	aPCL_L	pPCL_L	aMCL_L	aLCL_L
      0.00000000	     37.48087652	     28.28714471	     30.25598133	     13.28977762	     14.47626353	     15.91713841	     41.91604554	     20.39409361	     37.70804409	     36.02754664	      7.58998984	     27.93927808	     20.68957741	     14.51222487	     12.16230296	     19.66717628	     12.69197704	     11.16605282	      7.77608382	     18.12681708	     27.55933735	     20.56469162	     63.94906620	     55.74758807	     18.09791099	      9.16719286	     20.03897647	     52.55469672	     32.38176469	     32.82510377	     40.14722941	     67.39492298	     31.74693446	    152.72720615	     92.44658902	     14.93332009	     15.26895791	     41.82851940	     21.62523106	     46.40594865	      8.86060096	     25.04818486	      7.96045570	     37.48087652	     28.28714471	     30.25598133	     13.28977762	     14.47626353	     15.91713841	     42.06683902	     20.39635155	     37.67631238	     36.01822118	      7.59254209	     27.93927808	     20.68957741	     14.51222487	     12.16230296	     19.66717628	     12.58139899	     11.16605282	      7.78214370	     18.12681708	     27.55933735	     20.56469162	     63.94906620	     55.74758807	     18.09791099	      9.16719286	     20.03897647	     52.59637061	     32.48786114	     37.22481259	     39.87514307	     67.71424671	     31.64857027	    152.72720615	     92.44658902	     14.93332009	     15.26895791	     41.82851940	     21.62523106	     46.40594865	      8.86060096	     25.04818486	      7.96045570	    124.99446086	    124.99446086	     44.97041513	     44.97041513	     60.98287244	     60.98287244	      2.76307435	     50.99597937	     -9.56042239	      5.21997485	     -0.02578839	      1.48581788	     -2.76307435	    -50.99597937	      9.56042239	     -1.74637766	      0.02558040	     -0.48301696	     -3.31599387	     20.97615968	     -3.40468921	      0.94473225	     -0.02138609	     -1.00501789	      3.31599387	    -20.97615968	      3.40468921	      0.28075727	      0.00368718	     -0.29758878	      0.26487061	      0.56598727	      0.00493023	     -0.01675330	      0.00699952	      0.11068843	     -0.26487061	     -0.56598727	     -0.00493023	      0.01782112	     -0.00838419	     -0.00909654	      0.16478825	      7.28841916	      0.59737603	     -0.09257855	     -0.01292609	      0.18153883	     -0.16478825	     -7.28841916	     -0.59737603	     -0.09925921	      0.01248880	     -0.12328439	      0.00000000	      0.00000000	      0.00000000	      0.00000000	      0.00000000	      0.00000000	      0.00000000	      0.00000000	      0.00000000	      0.00000000	      0.00000000	      0.00000000	      0.00000000	      0.00000000	      0.00000000	      0.00000000	      0.00000000	      0.00000000	      0.00000000	      0.00000000	      0.00000000	      0.00000000	      0.00000000	      0.00000000	      0.00000000	      0.00000000	      0.00000000	      0.00000000	      0.00000000	      0.00000000	      0.00000000	      0.00000000	      0.00000000	      0.00000000	      0.00000000	      0.00000000	      0.00000000	      0.00000000	      0.00000000	      0.00000000	      0.00000000	      0.00000000	      0.00000000	      0.00000000	      0.00000000	      0.00000000	      0.00000000	      0.00000000	      0.00000000	      0.00000000	      0.00000000	      0.00000000	      0.00000000	      1.86482875	     11.70724818	      1.86146449	      0.00000000	      2.98101398	      0.00000000	      0.00000000	      0.00000001	      0.00000000
      0.00100000	     37.47068608	     28.27022932	     30.24086714	     13.26950867	     14.46480712	     15.91260065	     42.73634020	     22.32666181	     38.84535351	     45.40255048	     12.52416790	     27.92554748	     20.64313666	     14.50364319	     12.15716021	     19.66293667	     12.52160907	     11.15324218	     10.58945848	     18.11779344	     27.54583488	     20.55620729	     63.92578024	     55.73415570	     18.08271668	      9.16509816	     20.03713766	     50.90333587	     29.25648908	     29.87154021	     36.71796650	     66.46947179	     31.32272791	    147.91943078	     91.86305626	     14.96201701	     15.25377560	     43.16701400	     21.53667058	     46.22254943	      9.27129525	     25.35494032	      8.06509833	     37.47068608	     28.27022932	     30.24086714	     13.26950867	     14.46480712	     15.91260065	     42.06228881	     20.39020965	     37.67123261	     35.98888344	      7.57882260	     27.92554748	     20.64313666	     14.50364319	     12.15716021	     19.66293667	     12.58033419	     11.15324218	      7.77413879	     18.11779344	     27.54583488	     20.55620729	     63.92578024	     55.73415570	     18.08271668	      9.16509816	     20.03713766	     52.58867645	     32.47668845	     37.21372981	     39.86386325	     67.70976811	     31.64643975	    152.71327822	     92.44307771	     14.93481584	     15.27019563	     41.82127614	     21.62263156	     46.40335095	      8.85785788	     25.04193096	      7.95792407	    124.81723588	    124.81723588	     44.95337082	     44.95337082	     60.96445217	     60.96445217	      2.76307435	     50.99597937	     -9.56042239	      5.21997485	     -0.02578839	      1.48581788	     -2.76307435	    -50.99597937	      9.56042239	     -1.74637766	      0.02558040	     -0.48301696	     -3.31599387	     20.97615968	     -3.40468921	      0.94473225	     -0.02138609	     -1.00501789	      3.31599387	    -20.97615968	      3.40468921	      0.28075727	      0.00368718	     -0.29758878	     -0.08295476	      2.30586012	     -0.00195134	     -0.06024250	     -0.00210777	     -0.02867411	      0.08295476	     -2.30586012	      0.00195134	      0.07307504	      0.00254097	     -0.00496403	     -1.59463359	     15.39644198	      1.38263535	     -0.25329370	      0.00895609	     -0.44844579	      1.59463359	    -15.39644198	     -1.38263535	     -0.19840149	      0.00041671	     -0.17687898	      0.00000000	      0.00000000	      0.00000000	      0.00000000	      0.00000000	      0.00000000	      0.00000000	      0.00000000	      0.00000000	      0.00000000	      0.00000000	      0.00000000	      0.00000000	      0.00000000	      0.00000000	      0.00000000	      0.00000000	      0.00000000	      0.00000000	      0.00000000	      0.00000000	      0.00000000	      0.00000000	      0.00000000	      0.00000000	      0.00000000	      0.00000000	      0.00000000	      0.00000000	      0.00000000	      0.00000000	      0.00000000	      0.00000000	      0.00000000	      0.00000000	      0.00000000	      0.00000000	      0.00000000	      0.00000000	      0.00000000	      0.00000000	      0.00000000	      0.00000000	      0.00000000	      0.00000000	      0.00000000	      0.00000000	      0.00000000	      0.00000000	      0.00000000	      0.00000000	      0.00000000	      0.00000000	    -55.92765409	    -45.69442428	    -51.23536998	      0.00000000	    -51.91512036	      0.00000000	      0.00000000	      0.00000001	      0.00000000
      0.00300379	     37.39011236	     28.14267363	     30.12525184	     13.13578186	     14.38100738	     15.87678666	     47.27341838	     33.09963503	     45.14482711	     94.20297768	     32.47134621	     27.82040478	     20.36662415	     14.43887960	     12.11738826	     19.62914181	     11.74987390	     11.06402610	     24.45180145	     18.04876584	     27.44242649	     20.49049382	     63.74625142	     55.62756309	     17.97208947	      9.14850787	     20.02221067	     42.53870744	     15.74012810	     16.84499644	     20.90398232	     60.47522673	     28.57482040	    118.76123512	     87.68851932	     15.17141383	     15.17466731	     52.40920881	     21.18216037	     45.22783330	     12.22507140	     27.37347084	      8.71467052	     37.39011236	     28.14267363	     30.12525184	     13.13578186	     14.38100738	     15.87678666	     42.02545030	     20.34184553	     37.63025942	     35.77449272	      7.49188656	     27.82040478	     20.36662415	     14.43887960	     12.11738826	     19.62914181	     12.57169508	     11.06402610	      7.71742570	     18.04876584	     27.44242649	     20.49049382	     63.74625142	     55.62756309	     17.97208947	      9.14850787	     20.02221067	     52.52671480	     32.38929263	     37.12645107	     39.77484694	     67.67327630	     31.62908211	    152.60020325	     92.41440104	     14.94655399	     15.27982225	     41.76317261	     21.60161317	     46.38214814	      8.83630855	     24.99221079	      7.93788745	    123.62986290	    123.62986290	     44.82067213	     44.82067213	     60.82199746	     60.82199746	      2.76307435	     50.99597937	     -9.56042239	      5.21997485	     -0.02578839	      1.48581788	     -2.76307435	    -50.99597937	      9.56042239	     -1.74637766	      0.02558040	     -0.48301696	     -3.31599387	     20.97615968	     -3.40468921	      0.94473225	     -0.02138609	     -1.00501789	      3.31599387	    -20.97615968	      3.40468921	      0.28075727	      0.00368718	     -0.29758878	    -16.16510217	     34.89531840	      3.09933705	     -2.23931652	     -0.46434286	     -6.58792193	     16.16510217	    -34.89531840	     -3.09933705	      1.22875230	      0.55150192	      0.33583743	    -25.40147341	     88.17242560	     14.53921931	     -4.34219855	      0.21629207	     -9.40830461	     25.40147341	    -88.17242560	    -14.53921931	     -0.79243500	     -0.07051213	     -0.44649058	      0.00000000	      0.00000000	      0.00000000	      0.00000000	      0.00000000	      0.00000000	      0.00000000	      0.00000000	      0.00000000	      0.00000000	      0.00000000	      0.00000000	      0.00000000	      0.00000000	      0.00000000	      0.00000000	      0.00000000	      0.00000000	      0.00000000	      0.00000000	      0.00000000	      0.00000000	      0.00000000	      0.00000000	      0.00000000	      0.00000000	      0.00000000	      0.00000000	      0.00000000	      0.00000000	      0.00000000	      0.00000000	      0.00000000	      0.00000000	      0.00000000	      0.00000000	      0.00000000	      0.00000000	      0.00000000	      0.00000000	      0.00000000	      0.00000000	      0.00000000	      0.00000000	      0.00000000	      0.00000000	      0.00000000	      0.00000000	      0.00000000	      0.00000000	      0.00000000	      0.00000000	      0.00000000	   -102.58117516	    -92.89718553	    -80.78846259	      0.00000000	    -84.22496925	      0.00000000	      0.00000000	      0.00000001	      0.00000000
      0.00500757	     37.23259519	     27.90877774	     29.90918790	     12.92737589	     14.23326878	     15.80695026	     56.06099857	     51.48351934	     56.39837362	    160.17174632	     51.00150559	     27.62362922	     19.97962554	     14.31998579	     12.04195201	     19.56232096	     10.95678376	     10.91596654	     41.59148403	     17.91973822	     27.24884093	     20.36560187	     63.40713002	     55.41812838	     17.77819448	      9.11599665	     19.99192632	     34.69296346	      7.76448313	      8.46858841	     10.11773991	     54.56939670	     25.85050456	     83.77585354	     81.15668982	     15.52532644	     15.11702501	     64.61010009	     21.10019773	     44.19463176	     14.87148183	     30.23984898	      9.53974859	     37.23259519	     27.90877774	     29.90918790	     12.92737589	     14.23326878	     15.80695026	     41.95099344	     20.24783411	     37.54788368	     35.39696639	      7.36224640	     27.62362922	     19.97962554	     14.31998579	     12.04195201	     19.56232096	     12.55418104	     10.91596654	      7.62134091	     17.91973822	     27.24884093	     20.36560187	     63.40713002	     55.41812838	     17.77819448	      9.11599665	     19.99192632	     52.40242797	     32.22091383	     36.95674037	     39.60124261	     67.59884320	     31.59368367	    152.37075627	     92.35571159	     14.96906707	     15.29801034	     41.64726637	     21.55921238	     46.33879371	      8.79455528	     24.89459274	      7.89881115	    121.74692614	    121.74692614	     44.56671944	     44.56671944	     60.55175055	     60.55175055	      2.76307435	     50.99597937	     -9.56042239	      5.21997485	     -0.02578839	      1.48581788	     -2.76307435	    -50.99597937	      9.56042239	     -1.74637766	      0.02558040	     -0.48301696	     -3.31599387	     20.97615968	     -3.40468921	      0.94473225	     -0.02138609	     -1.00501789	      3.31599387	    -20.97615968	      3.40468921	      0.28075727	      0.00368718	     -0.29758878	    -44.09309970	    119.65524454	      7.86995820	     -6.49154087	     -1.26459242	    -17.70922506	     44.09309970	   -119.65524454	     -7.86995820	      4.08639092	      1.50217899	      0.62158719	    -34.49750360	    216.05503280	     35.09735243	    -10.37922237	     -0.00717338	    -11.31556026	     34.49750360	   -216.05503280	    -35.09735243	     -1.99493319	      0.22529585	     -2.18984402	      0.00000000	      0.00000000	      0.00000000	      0.00000000	      0.00000000	      0.00000000	      0.00000000	      0.00000000	      0.00000000	      0.00000000	      0.00000000	      0.00000000	      0.00000000	      0.00000000	      0.00000000	      0.00000000	      0.00000000	      0.00000000	      0.00000000	      0.00000000	      0.00000000	      0.00000000	      0.00000000	      0.00000000	      4.94369479	    -24.49111258	      0.69100420	     -0.22170133	     -0.04784297	     -0.18748044	     -4.94369479	     24.49111258	     -0.69100420	      0.61449654	      0.07272828	     -1.74071464	      0.00000000	      0.00000000	      0.00000000	      0.00000000	      0.00000000	      0.00000000	      0.00000000	      0.00000000	      0.00000000	      0.00000000	      0.00000000	      0.00000000	      0.00000000	      0.00000000	      0.00000000	      0.00000000	      0.00000000	    -89.70005257	    -82.43975624	    -79.80630215	      0.00000000	    -83.61359381	      0.00000000	      0.00000000	      0.00000001	      0.00000000
